<svg xmlns="http://www.w3.org/2000/svg" viewBox="0 0 318.64 318.64"><defs><style>.cls-1{fill:#27aae1;}.cls-2{fill:#fff;}</style></defs><g id="Layer_2" data-name="Layer 2"><g id="Layer_1-2" data-name="Layer 1"><rect class="cls-1" width="318.64" height="318.64" rx="74.81" transform="translate(318.64 0) rotate(90)"/><path class="cls-2" d="M295.09,193.34H245.85L154.48,35.07a6.4,6.4,0,0,0-5.54-3.19H108.59a6.39,6.39,0,0,0-5.54,9.58l24.59,42.6L36.32,242.22a6.45,6.45,0,0,0,0,6.39L56.5,283.56a6.39,6.39,0,0,0,11.07,0l24.6-42.49H274.91a6.37,6.37,0,0,0,5.53-3.2l20.18-35A6.39,6.39,0,0,0,295.09,193.34Zm-175.37,0,35.48-61.55,35.53,61.55Z"/></g></g></svg>